<mxfile host="Electron" agent="Mozilla/5.0 (Windows NT 10.0; Win64; x64) AppleWebKit/537.36 (KHTML, like Gecko) draw.io/28.0.6 Chrome/138.0.7204.100 Electron/37.2.3 Safari/537.36" version="28.0.6">
  <diagram name="Page-1" id="2lKz5sCZv246yy7k1Hzs">
    <mxGraphModel dx="868" dy="522" grid="1" gridSize="10" guides="1" tooltips="1" connect="1" arrows="1" fold="1" page="1" pageScale="1" pageWidth="850" pageHeight="1100" math="0" shadow="0">
      <root>
        <object label="" id="0">
          <mxCell />
        </object>
        <mxCell id="1" parent="0" />
        <mxCell id="mUyi0Sx_7lVbJQNyd357-1" value="&lt;font style=&quot;font-size: 26px;&quot;&gt;High Level Architecture&lt;/font&gt;&lt;div&gt;&lt;br&gt;&lt;/div&gt;" style="text;html=1;align=center;verticalAlign=middle;whiteSpace=wrap;rounded=0;strokeWidth=2;perimeterSpacing=14;shadow=0;fontSize=13;" parent="1" vertex="1">
          <mxGeometry x="35" y="50" width="320" height="30" as="geometry" />
        </mxCell>
        <mxCell id="mUyi0Sx_7lVbJQNyd357-2" value="" style="rounded=0;whiteSpace=wrap;html=1;fillColor=none;strokeWidth=2;fontSize=13;" parent="1" vertex="1">
          <mxGeometry y="120" width="120" height="360" as="geometry" />
        </mxCell>
        <mxCell id="mUyi0Sx_7lVbJQNyd357-4" value="&lt;div&gt;&lt;font&gt;Sources&lt;/font&gt;&lt;/div&gt;" style="rounded=0;whiteSpace=wrap;html=1;glass=0;strokeColor=none;fillColor=none;strokeWidth=2;fontSize=13;" parent="1" vertex="1">
          <mxGeometry x="20" y="100" width="80" height="20" as="geometry" />
        </mxCell>
        <mxCell id="mUyi0Sx_7lVbJQNyd357-5" value="" style="rounded=0;whiteSpace=wrap;html=1;fillColor=none;dashed=1;strokeWidth=2;fontSize=13;" parent="1" vertex="1">
          <mxGeometry x="200" y="120" width="400" height="360" as="geometry" />
        </mxCell>
        <mxCell id="mUyi0Sx_7lVbJQNyd357-7" value="&lt;span&gt;Data Warehouse&lt;/span&gt;" style="rounded=0;whiteSpace=wrap;html=1;glass=0;fillColor=none;strokeColor=none;strokeWidth=2;fontSize=13;" parent="1" vertex="1">
          <mxGeometry x="330" y="100" width="140" height="20" as="geometry" />
        </mxCell>
        <mxCell id="mUyi0Sx_7lVbJQNyd357-9" value="" style="rounded=0;whiteSpace=wrap;html=1;fillColor=none;strokeWidth=2;fontSize=13;" parent="1" vertex="1">
          <mxGeometry x="680" y="120" width="120" height="360" as="geometry" />
        </mxCell>
        <mxCell id="mUyi0Sx_7lVbJQNyd357-12" value="&lt;span&gt;Consume&lt;/span&gt;" style="rounded=0;whiteSpace=wrap;html=1;glass=0;fillColor=none;strokeColor=none;rotation=0;strokeWidth=2;fontSize=13;" parent="1" vertex="1">
          <mxGeometry x="700" y="100" width="80" height="20" as="geometry" />
        </mxCell>
        <mxCell id="mUyi0Sx_7lVbJQNyd357-14" value="&lt;b&gt;&lt;font style=&quot;line-height: 110%; font-size: 12px;&quot;&gt;Bronze Layer&lt;/font&gt;&lt;/b&gt;" style="rounded=0;whiteSpace=wrap;html=1;fillColor=#FFD966;strokeColor=#FFD966;fontColor=#000000;strokeWidth=2;fontSize=13;" parent="1" vertex="1">
          <mxGeometry x="220" y="130" width="80" height="20" as="geometry" />
        </mxCell>
        <mxCell id="mUyi0Sx_7lVbJQNyd357-15" value="" style="rounded=0;whiteSpace=wrap;html=1;fillColor=none;strokeColor=#FFD966;fontColor=#000000;strokeWidth=2;fontSize=13;" parent="1" vertex="1">
          <mxGeometry x="220" y="160" width="80" height="310" as="geometry" />
        </mxCell>
        <mxCell id="mUyi0Sx_7lVbJQNyd357-16" value="&lt;b&gt;&lt;font style=&quot;font-size: 12px;&quot;&gt;Silver Layer&lt;/font&gt;&lt;/b&gt;" style="rounded=0;whiteSpace=wrap;html=1;fillColor=#666666;strokeColor=#666666;fontColor=#000000;strokeWidth=2;fontSize=13;" parent="1" vertex="1">
          <mxGeometry x="360" y="130" width="80" height="20" as="geometry" />
        </mxCell>
        <mxCell id="mUyi0Sx_7lVbJQNyd357-17" value="&lt;b&gt;&lt;font style=&quot;font-size: 12px;&quot;&gt;Gold Layer&lt;/font&gt;&lt;/b&gt;" style="rounded=0;whiteSpace=wrap;html=1;fillColor=#B09500;strokeColor=#B09500;fontColor=#000000;strokeWidth=2;fontSize=13;" parent="1" vertex="1">
          <mxGeometry x="500" y="130" width="80" height="20" as="geometry" />
        </mxCell>
        <mxCell id="mUyi0Sx_7lVbJQNyd357-18" value="" style="rounded=0;whiteSpace=wrap;html=1;fillColor=none;strokeColor=light-dark(#B09500,#666666);fontColor=#000000;strokeWidth=2;fontSize=13;" parent="1" vertex="1">
          <mxGeometry x="360" y="160" width="80" height="310" as="geometry" />
        </mxCell>
        <mxCell id="mUyi0Sx_7lVbJQNyd357-19" value="" style="rounded=0;whiteSpace=wrap;html=1;fillColor=none;strokeColor=#B09500;fontColor=#000000;strokeWidth=2;fontSize=13;" parent="1" vertex="1">
          <mxGeometry x="500" y="160" width="80" height="310" as="geometry" />
        </mxCell>
        <mxCell id="mUyi0Sx_7lVbJQNyd357-21" value="CRM" style="sketch=0;pointerEvents=1;shadow=0;dashed=0;html=1;strokeColor=none;fillColor=#505050;labelPosition=center;verticalLabelPosition=bottom;verticalAlign=top;outlineConnect=0;align=center;shape=mxgraph.office.concepts.folder;strokeWidth=2;fontSize=13;" parent="1" vertex="1">
          <mxGeometry x="35" y="200" width="50" height="40" as="geometry" />
        </mxCell>
        <mxCell id="mUyi0Sx_7lVbJQNyd357-22" value="" style="verticalLabelPosition=bottom;html=1;verticalAlign=top;align=center;strokeColor=none;fillColor=#00BEF2;shape=mxgraph.azure.cloud_services_configuration_file;pointerEvents=1;strokeWidth=2;fontSize=13;" parent="1" vertex="1">
          <mxGeometry x="70" y="230" width="20" height="20" as="geometry" />
        </mxCell>
        <mxCell id="mUyi0Sx_7lVbJQNyd357-23" value="ERP" style="sketch=0;pointerEvents=1;shadow=0;dashed=0;html=1;strokeColor=none;fillColor=#505050;labelPosition=center;verticalLabelPosition=bottom;verticalAlign=top;outlineConnect=0;align=center;shape=mxgraph.office.concepts.folder;strokeWidth=2;fontSize=13;" parent="1" vertex="1">
          <mxGeometry x="35" y="320" width="50" height="40" as="geometry" />
        </mxCell>
        <mxCell id="mUyi0Sx_7lVbJQNyd357-24" value="" style="verticalLabelPosition=bottom;html=1;verticalAlign=top;align=center;strokeColor=none;fillColor=#00BEF2;shape=mxgraph.azure.cloud_services_configuration_file;pointerEvents=1;strokeWidth=2;fontSize=13;" parent="1" vertex="1">
          <mxGeometry x="70" y="350" width="20" height="20" as="geometry" />
        </mxCell>
        <mxCell id="mUyi0Sx_7lVbJQNyd357-30" value="" style="endArrow=none;html=1;rounded=0;strokeColor=#666666;strokeWidth=2;fontSize=13;" parent="1" edge="1">
          <mxGeometry width="50" height="50" relative="1" as="geometry">
            <mxPoint x="20" y="390" as="sourcePoint" />
            <mxPoint x="100" y="390" as="targetPoint" />
            <Array as="points" />
          </mxGeometry>
        </mxCell>
        <mxCell id="mUyi0Sx_7lVbJQNyd357-32" value="&lt;font style=&quot;font-size: 7px;&quot;&gt;&lt;b style=&quot;&quot;&gt;Object type:&lt;/b&gt;CSV Files&lt;/font&gt;&lt;div&gt;&lt;font style=&quot;font-size: 7px;&quot;&gt;&lt;br&gt;&lt;/font&gt;&lt;div&gt;&lt;font style=&quot;font-size: 7px;&quot;&gt;&lt;b style=&quot;&quot;&gt;Interface&lt;/b&gt;:Files in Folder&lt;/font&gt;&lt;/div&gt;&lt;/div&gt;" style="text;html=1;align=center;verticalAlign=middle;whiteSpace=wrap;rounded=0;strokeWidth=2;fontSize=13;" parent="1" vertex="1">
          <mxGeometry x="5" y="400" width="110" height="30" as="geometry" />
        </mxCell>
        <mxCell id="mUyi0Sx_7lVbJQNyd357-33" value="" style="html=1;verticalLabelPosition=bottom;align=center;labelBackgroundColor=#ffffff;verticalAlign=top;strokeWidth=2;strokeColor=#FFD966;shadow=0;dashed=0;shape=mxgraph.ios7.icons.data;fontSize=13;" parent="1" vertex="1">
          <mxGeometry x="240" y="198.18" width="40" height="43.64" as="geometry" />
        </mxCell>
        <mxCell id="mUyi0Sx_7lVbJQNyd357-34" value="" style="html=1;verticalLabelPosition=bottom;align=center;labelBackgroundColor=#ffffff;verticalAlign=top;strokeWidth=2;strokeColor=#666666;shadow=0;dashed=0;shape=mxgraph.ios7.icons.data;fontSize=13;" parent="1" vertex="1">
          <mxGeometry x="380" y="196.36" width="40" height="43.64" as="geometry" />
        </mxCell>
        <mxCell id="mUyi0Sx_7lVbJQNyd357-35" value="" style="html=1;verticalLabelPosition=bottom;align=center;labelBackgroundColor=#ffffff;verticalAlign=top;strokeWidth=2;strokeColor=#B09500;shadow=0;dashed=0;shape=mxgraph.ios7.icons.data;fontSize=13;" parent="1" vertex="1">
          <mxGeometry x="520" y="200" width="40" height="43.64" as="geometry" />
        </mxCell>
        <mxCell id="mUyi0Sx_7lVbJQNyd357-37" value="" style="shape=flexArrow;endArrow=classic;html=1;rounded=0;exitX=1;exitY=0.5;exitDx=0;exitDy=0;fillColor=#f5f5f5;strokeColor=#666666;gradientColor=#b3b3b3;strokeWidth=2;fontSize=13;" parent="1" edge="1">
          <mxGeometry width="50" height="50" relative="1" as="geometry">
            <mxPoint x="120" y="299.47" as="sourcePoint" />
            <mxPoint x="200" y="300" as="targetPoint" />
            <Array as="points">
              <mxPoint x="160" y="300" />
            </Array>
          </mxGeometry>
        </mxCell>
        <mxCell id="mUyi0Sx_7lVbJQNyd357-41" value="" style="shape=flexArrow;endArrow=classic;html=1;rounded=0;fillColor=#f5f5f5;strokeColor=#666666;gradientColor=#b3b3b3;strokeWidth=2;startSize=6;endSize=6;sourcePerimeterSpacing=0;fontSize=13;" parent="1" edge="1">
          <mxGeometry width="50" height="50" relative="1" as="geometry">
            <mxPoint x="300" y="300" as="sourcePoint" />
            <mxPoint x="360" y="300" as="targetPoint" />
            <Array as="points">
              <mxPoint x="330" y="300" />
            </Array>
          </mxGeometry>
        </mxCell>
        <mxCell id="mUyi0Sx_7lVbJQNyd357-43" value="" style="shape=flexArrow;endArrow=classic;html=1;rounded=0;fillColor=#f5f5f5;strokeColor=#666666;gradientColor=#b3b3b3;strokeWidth=2;startSize=6;endSize=6;sourcePerimeterSpacing=0;fontSize=13;" parent="1" edge="1">
          <mxGeometry width="50" height="50" relative="1" as="geometry">
            <mxPoint x="440" y="299.47" as="sourcePoint" />
            <mxPoint x="500" y="299.47" as="targetPoint" />
            <Array as="points">
              <mxPoint x="470" y="299.47" />
            </Array>
          </mxGeometry>
        </mxCell>
        <mxCell id="mUyi0Sx_7lVbJQNyd357-44" value="" style="shape=flexArrow;endArrow=classic;html=1;rounded=0;fillColor=#f5f5f5;strokeColor=#666666;gradientColor=#b3b3b3;strokeWidth=2;startSize=6;endSize=6;sourcePerimeterSpacing=0;entryX=0;entryY=0.5;entryDx=0;entryDy=0;fontSize=13;" parent="1" target="mUyi0Sx_7lVbJQNyd357-9" edge="1">
          <mxGeometry width="50" height="50" relative="1" as="geometry">
            <mxPoint x="580" y="299.47" as="sourcePoint" />
            <mxPoint x="640" y="299.47" as="targetPoint" />
            <Array as="points" />
          </mxGeometry>
        </mxCell>
        <mxCell id="mUyi0Sx_7lVbJQNyd357-45" value="&lt;font&gt;Raw Data&lt;/font&gt;" style="text;html=1;align=center;verticalAlign=middle;whiteSpace=wrap;rounded=0;strokeWidth=2;fontSize=13;" parent="1" vertex="1">
          <mxGeometry x="230" y="260" width="60" height="19" as="geometry" />
        </mxCell>
        <mxCell id="mUyi0Sx_7lVbJQNyd357-46" value="&lt;span&gt;Cleaned, Standardized Data&lt;/span&gt;" style="text;html=1;align=center;verticalAlign=middle;whiteSpace=wrap;rounded=0;strokeWidth=2;fontSize=13;" parent="1" vertex="1">
          <mxGeometry x="355" y="260" width="90" height="19" as="geometry" />
        </mxCell>
        <mxCell id="mUyi0Sx_7lVbJQNyd357-47" value="&lt;span&gt;Business-Ready Data&lt;/span&gt;" style="text;html=1;align=center;verticalAlign=middle;whiteSpace=wrap;rounded=0;strokeWidth=2;fontSize=13;" parent="1" vertex="1">
          <mxGeometry x="510" y="260" width="60" height="19" as="geometry" />
        </mxCell>
        <mxCell id="mUyi0Sx_7lVbJQNyd357-48" value="" style="endArrow=none;html=1;rounded=0;entryX=1.036;entryY=0.841;entryDx=0;entryDy=0;entryPerimeter=0;fontSize=13;" parent="1" edge="1">
          <mxGeometry width="50" height="50" relative="1" as="geometry">
            <mxPoint x="230" y="299.65" as="sourcePoint" />
            <mxPoint x="292.88" y="300.36" as="targetPoint" />
            <Array as="points" />
          </mxGeometry>
        </mxCell>
        <mxCell id="mUyi0Sx_7lVbJQNyd357-49" value="" style="endArrow=none;html=1;rounded=0;entryX=1.036;entryY=0.841;entryDx=0;entryDy=0;entryPerimeter=0;fontSize=13;" parent="1" edge="1">
          <mxGeometry width="50" height="50" relative="1" as="geometry">
            <mxPoint x="368.56" y="299.65" as="sourcePoint" />
            <mxPoint x="431.44" y="300.36" as="targetPoint" />
            <Array as="points" />
          </mxGeometry>
        </mxCell>
        <mxCell id="mUyi0Sx_7lVbJQNyd357-50" value="" style="endArrow=none;html=1;rounded=0;entryX=1.036;entryY=0.841;entryDx=0;entryDy=0;entryPerimeter=0;fontSize=13;" parent="1" edge="1">
          <mxGeometry width="50" height="50" relative="1" as="geometry">
            <mxPoint x="508.56" y="299.65" as="sourcePoint" />
            <mxPoint x="571.4399999999999" y="300.36" as="targetPoint" />
            <Array as="points" />
          </mxGeometry>
        </mxCell>
        <mxCell id="mUyi0Sx_7lVbJQNyd357-52" value="&lt;div style=&quot;line-height: 60%;&quot;&gt;&lt;font style=&quot;font-size: 5px; line-height: 60%;&quot;&gt;&lt;b&gt;Object type:&lt;/b&gt;Tables&lt;/font&gt;&lt;/div&gt;&lt;div style=&quot;line-height: 60%;&quot;&gt;&lt;span style=&quot;font-size: 5px;&quot;&gt;&lt;b&gt;&lt;br&gt;&lt;/b&gt;&lt;/span&gt;&lt;div&gt;&lt;font style=&quot;font-size: 5px; line-height: 60%;&quot;&gt;&lt;b&gt;Load:&lt;/b&gt;&lt;/font&gt;&lt;/div&gt;&lt;div&gt;&lt;span style=&quot;font-size: 5px; line-height: 60%;&quot;&gt;&lt;span style=&quot;font-weight: bold; white-space: pre;&quot;&gt;&#x9;&lt;/span&gt;- Batch Processing&lt;br&gt;&lt;span style=&quot;white-space: pre;&quot;&gt;&#x9;&lt;/span&gt;- Full Load&lt;/span&gt;&lt;/div&gt;&lt;div&gt;&lt;span style=&quot;font-size: 5px; line-height: 60%;&quot;&gt;&lt;span style=&quot;white-space: pre;&quot;&gt;&#x9;&lt;/span&gt;- Truncate &amp;amp; Insert&lt;br&gt;&lt;/span&gt;&lt;/div&gt;&lt;div&gt;&lt;br&gt;&lt;/div&gt;&lt;div&gt;&lt;span style=&quot;font-size: 5px; line-height: 60%;&quot;&gt;No &lt;b&gt;Transformations&lt;/b&gt;&lt;/span&gt;&lt;/div&gt;&lt;div&gt;&lt;span style=&quot;font-size: 5px; line-height: 60%;&quot;&gt;&lt;b&gt;&lt;br&gt;&lt;/b&gt;&lt;/span&gt;&lt;/div&gt;&lt;div&gt;&lt;span style=&quot;font-size: 5px; line-height: 60%;&quot;&gt;&lt;b&gt;Data Model:&lt;/b&gt;None (as-is)&lt;/span&gt;&lt;/div&gt;&lt;div&gt;&lt;font style=&quot;font-size: 5px;&quot;&gt;&lt;b style=&quot;&quot;&gt;&lt;br&gt;&lt;/b&gt;&lt;/font&gt;&lt;/div&gt;&lt;div&gt;&lt;font style=&quot;font-size: 5px; line-height: 60%;&quot;&gt;&lt;b&gt;&amp;nbsp;&lt;/b&gt;&lt;/font&gt;&lt;/div&gt;&lt;/div&gt;" style="text;html=1;align=left;verticalAlign=middle;whiteSpace=wrap;rounded=0;strokeWidth=2;fontSize=13;" parent="1" vertex="1">
          <mxGeometry x="230" y="310" width="60" height="130" as="geometry" />
        </mxCell>
        <mxCell id="mUyi0Sx_7lVbJQNyd357-57" value="&lt;div style=&quot;line-height: 60%;&quot;&gt;&lt;font style=&quot;font-size: 5px; line-height: 60%;&quot;&gt;&lt;b&gt;Object type:&lt;/b&gt;Tables&lt;/font&gt;&lt;/div&gt;&lt;div style=&quot;line-height: 60%;&quot;&gt;&lt;span style=&quot;font-size: 5px;&quot;&gt;&lt;b&gt;&lt;br&gt;&lt;/b&gt;&lt;/span&gt;&lt;div&gt;&lt;font style=&quot;font-size: 5px; line-height: 60%;&quot;&gt;&lt;b&gt;Load:&lt;/b&gt;&lt;/font&gt;&lt;/div&gt;&lt;div&gt;&lt;span style=&quot;font-size: 5px; line-height: 60%;&quot;&gt;&lt;span style=&quot;font-weight: bold; white-space: pre;&quot;&gt;&#x9;&lt;/span&gt;- Batch Processing&lt;/span&gt;&lt;br&gt;&lt;div&gt;&lt;span style=&quot;background-color: transparent; color: light-dark(rgb(0, 0, 0), rgb(255, 255, 255)); font-size: 5px; line-height: 60%;&quot;&gt;&lt;span style=&quot;white-space: pre;&quot;&gt;&#x9;&lt;/span&gt;- Full &lt;/span&gt;&lt;font style=&quot;background-color: transparent; color: light-dark(rgb(0, 0, 0), rgb(255, 255, 255)); font-size: 5px; line-height: 60%;&quot;&gt;Load&lt;/font&gt;&lt;/div&gt;&lt;/div&gt;&lt;div&gt;&lt;font style=&quot;background-color: transparent; color: light-dark(rgb(0, 0, 0), rgb(255, 255, 255)); font-size: 5px; line-height: 60%;&quot;&gt;&lt;span style=&quot;white-space: pre;&quot;&gt;&#x9;&lt;/span&gt;- Truncate &amp;amp; Insert&lt;br&gt;&lt;/font&gt;&lt;/div&gt;&lt;div&gt;&lt;font style=&quot;background-color: transparent; color: light-dark(rgb(0, 0, 0), rgb(255, 255, 255)); font-size: 5px; line-height: 60%;&quot;&gt;&lt;b&gt;&lt;br&gt;&lt;/b&gt;&lt;/font&gt;&lt;/div&gt;&lt;div&gt;&lt;b style=&quot;background-color: transparent; color: light-dark(rgb(0, 0, 0), rgb(255, 255, 255)); font-size: 5px; line-height: 60%;&quot;&gt;Transformations:&lt;/b&gt;&lt;/div&gt;&lt;div&gt;&lt;span style=&quot;background-color: transparent; color: light-dark(rgb(0, 0, 0), rgb(255, 255, 255)); font-size: 5px; line-height: 60%;&quot;&gt;&lt;span style=&quot;font-weight: bold; white-space: pre;&quot;&gt;&#x9;&lt;/span&gt;- Data Cleansing&lt;br&gt;&lt;/span&gt;&lt;/div&gt;&lt;div&gt;&lt;span style=&quot;background-color: transparent; color: light-dark(rgb(0, 0, 0), rgb(255, 255, 255)); font-size: 5px; line-height: 60%;&quot;&gt;&lt;span style=&quot;white-space: pre;&quot;&gt;&#x9;&lt;/span&gt;- Data Standrization&amp;nbsp;&lt;br&gt;&lt;/span&gt;&lt;/div&gt;&lt;div&gt;&lt;span style=&quot;background-color: transparent; color: light-dark(rgb(0, 0, 0), rgb(255, 255, 255)); font-size: 5px; line-height: 60%;&quot;&gt;&lt;span style=&quot;white-space: pre;&quot;&gt;&#x9;&lt;/span&gt;- Data Normalization&lt;br&gt;&lt;/span&gt;&lt;/div&gt;&lt;div&gt;&lt;span style=&quot;background-color: transparent; color: light-dark(rgb(0, 0, 0), rgb(255, 255, 255)); font-size: 5px; line-height: 60%;&quot;&gt;&lt;span style=&quot;white-space: pre;&quot;&gt;&#x9;&lt;/span&gt;- Derived Columns&lt;br&gt;&lt;/span&gt;&lt;/div&gt;&lt;div&gt;&lt;span style=&quot;background-color: transparent; color: light-dark(rgb(0, 0, 0), rgb(255, 255, 255)); font-size: 5px; line-height: 60%;&quot;&gt;&lt;span style=&quot;white-space: pre;&quot;&gt;&#x9;&lt;/span&gt;- Data Enrichment&amp;nbsp;&lt;br&gt;&lt;/span&gt;&lt;/div&gt;&lt;div&gt;&lt;b style=&quot;background-color: transparent; color: light-dark(rgb(0, 0, 0), rgb(255, 255, 255)); font-size: 5px; line-height: 60%;&quot;&gt;&lt;br&gt;&lt;/b&gt;&lt;/div&gt;&lt;div&gt;&lt;span style=&quot;font-size: 5px; line-height: 60%;&quot;&gt;&lt;b&gt;Data Model:&lt;/b&gt;None (as-is)&lt;/span&gt;&lt;/div&gt;&lt;div&gt;&lt;font style=&quot;font-size: 5px;&quot;&gt;&lt;b style=&quot;&quot;&gt;&lt;br&gt;&lt;/b&gt;&lt;/font&gt;&lt;/div&gt;&lt;div&gt;&lt;font style=&quot;font-size: 5px; line-height: 60%;&quot;&gt;&lt;b&gt;&amp;nbsp;&lt;/b&gt;&lt;/font&gt;&lt;/div&gt;&lt;/div&gt;" style="text;html=1;align=left;verticalAlign=middle;whiteSpace=wrap;rounded=0;strokeWidth=2;fontSize=13;" parent="1" vertex="1">
          <mxGeometry x="370" y="350" width="60" height="90" as="geometry" />
        </mxCell>
        <mxCell id="mUyi0Sx_7lVbJQNyd357-58" value="&lt;div style=&quot;line-height: 60%;&quot;&gt;&lt;font style=&quot;font-size: 5px; line-height: 60%;&quot;&gt;&lt;b&gt;Object type:&lt;/b&gt;Views&lt;/font&gt;&lt;/div&gt;&lt;div style=&quot;line-height: 60%;&quot;&gt;&lt;font style=&quot;font-size: 5px; line-height: 60%;&quot;&gt;&lt;br&gt;&lt;/font&gt;&lt;/div&gt;&lt;div style=&quot;line-height: 60%;&quot;&gt;&lt;div&gt;&lt;font style=&quot;font-size: 5px; line-height: 60%;&quot;&gt;No &lt;b&gt;Load&lt;/b&gt;&lt;/font&gt;&lt;/div&gt;&lt;div&gt;&lt;font style=&quot;background-color: transparent; color: light-dark(rgb(0, 0, 0), rgb(255, 255, 255)); font-size: 5px; line-height: 60%;&quot;&gt;&lt;b&gt;&lt;br&gt;&lt;/b&gt;&lt;/font&gt;&lt;/div&gt;&lt;div&gt;&lt;b style=&quot;background-color: transparent; color: light-dark(rgb(0, 0, 0), rgb(255, 255, 255)); font-size: 5px; line-height: 60%;&quot;&gt;Transformations:&lt;/b&gt;&lt;/div&gt;&lt;div&gt;&lt;span style=&quot;background-color: transparent; color: light-dark(rgb(0, 0, 0), rgb(255, 255, 255)); font-size: 5px; line-height: 60%;&quot;&gt;&lt;span style=&quot;font-weight: bold; white-space: pre;&quot;&gt;&#x9;&lt;/span&gt;- Data Integrations&lt;/span&gt;&lt;/div&gt;&lt;div&gt;&lt;span style=&quot;background-color: transparent; color: light-dark(rgb(0, 0, 0), rgb(255, 255, 255)); font-size: 5px; line-height: 60%;&quot;&gt;&lt;span style=&quot;white-space: pre;&quot;&gt;&#x9;&lt;/span&gt;- Aggregations&lt;br&gt;&lt;/span&gt;&lt;/div&gt;&lt;div&gt;&lt;span style=&quot;background-color: transparent; color: light-dark(rgb(0, 0, 0), rgb(255, 255, 255)); font-size: 5px; line-height: 60%;&quot;&gt;&lt;span style=&quot;white-space: pre;&quot;&gt;&#x9;&lt;/span&gt;- Business Logics&lt;/span&gt;&lt;/div&gt;&lt;div&gt;&lt;b style=&quot;background-color: transparent; color: light-dark(rgb(0, 0, 0), rgb(255, 255, 255)); font-size: 5px; line-height: 60%;&quot;&gt;&lt;br&gt;&lt;/b&gt;&lt;/div&gt;&lt;div&gt;&lt;span style=&quot;font-size: 5px; line-height: 60%;&quot;&gt;&lt;b&gt;Data Model:&lt;/b&gt;&lt;/span&gt;&lt;/div&gt;&lt;div&gt;&lt;span style=&quot;font-size: 5px; line-height: 60%;&quot;&gt;&lt;span style=&quot;font-weight: bold; white-space: pre;&quot;&gt;&#x9;&lt;/span&gt;- Star Schema&amp;nbsp;&lt;br&gt;&lt;/span&gt;&lt;/div&gt;&lt;div&gt;&lt;span style=&quot;font-size: 5px; line-height: 60%;&quot;&gt;&lt;span style=&quot;white-space: pre;&quot;&gt;&#x9;&lt;/span&gt;- Flat Table&lt;/span&gt;&lt;/div&gt;&lt;div&gt;&lt;span style=&quot;font-size: 5px; line-height: 60%;&quot;&gt;&lt;span style=&quot;white-space: pre;&quot;&gt;&#x9;&lt;/span&gt;- Aggregated Table&lt;br&gt;&lt;/span&gt;&lt;/div&gt;&lt;div&gt;&lt;font style=&quot;font-size: 5px; line-height: 60%;&quot;&gt;&lt;b&gt;&amp;nbsp;&lt;/b&gt;&lt;/font&gt;&lt;/div&gt;&lt;/div&gt;" style="text;html=1;align=left;verticalAlign=middle;whiteSpace=wrap;rounded=0;strokeWidth=2;fontSize=13;" parent="1" vertex="1">
          <mxGeometry x="506.25" y="320" width="67.5" height="120" as="geometry" />
        </mxCell>
        <mxCell id="D0vJOv_r5K21qHO3EGTb-1" value="" style="shadow=0;dashed=0;html=1;strokeColor=none;fillColor=#4495D1;labelPosition=center;verticalLabelPosition=bottom;verticalAlign=top;align=center;outlineConnect=0;shape=mxgraph.veeam.magnifying_glass;pointerEvents=1;" vertex="1" parent="1">
          <mxGeometry x="720" y="270" width="40" height="40" as="geometry" />
        </mxCell>
        <mxCell id="D0vJOv_r5K21qHO3EGTb-2" value="&lt;div style=&quot;line-height: 90%;&quot;&gt;&lt;font style=&quot;font-size: 10px;&quot;&gt;Ad-Hoc&lt;/font&gt;&lt;div&gt;&lt;font style=&quot;font-size: 10px;&quot;&gt;SQL Queries&amp;nbsp;&lt;/font&gt;&lt;/div&gt;&lt;/div&gt;" style="text;html=1;align=center;verticalAlign=middle;whiteSpace=wrap;rounded=0;" vertex="1" parent="1">
          <mxGeometry x="700" y="310" width="80" height="30" as="geometry" />
        </mxCell>
        <mxCell id="D0vJOv_r5K21qHO3EGTb-3" value="" style="points=[];aspect=fixed;html=1;align=center;shadow=0;dashed=0;fillColor=#FF6A00;strokeColor=none;shape=mxgraph.alibaba_cloud.machine_learning;" vertex="1" parent="1">
          <mxGeometry x="719.76" y="375" width="39.76" height="40" as="geometry" />
        </mxCell>
        <mxCell id="D0vJOv_r5K21qHO3EGTb-4" value="&lt;div style=&quot;line-height: 90%;&quot;&gt;&lt;font style=&quot;font-size: 10px;&quot;&gt;Machine Learning&lt;/font&gt;&lt;/div&gt;" style="text;html=1;align=center;verticalAlign=middle;whiteSpace=wrap;rounded=0;" vertex="1" parent="1">
          <mxGeometry x="695" y="410" width="90" height="30" as="geometry" />
        </mxCell>
        <mxCell id="D0vJOv_r5K21qHO3EGTb-6" value="" style="aspect=fixed;html=1;align=center;fontSize=12;image=img/lib/azure2/analytics/Power_BI_Embedded.svg;sketch=0;points=[[0,0,0],[0.25,0,0],[0.5,0,0],[0.75,0,0],[1,0,0],[0,1,0],[0.25,1,0],[0.5,1,0],[0.75,1,0],[1,1,0],[0,0.25,0],[0,0.5,0],[0,0.75,0],[1,0.25,0],[1,0.5,0],[1,0.75,0]];outlineConnect=0;fontColor=#232F3E;fillColor=#7AA116;strokeColor=#ffffff;dashed=0;verticalLabelPosition=bottom;verticalAlign=top;fontStyle=0;shape=mxgraph.aws4.resourceIcon;resIcon=mxgraph.aws4.cost_and_usage_report;" vertex="1" parent="1">
          <mxGeometry x="700" y="158.18" width="30" height="40" as="geometry" />
        </mxCell>
        <mxCell id="D0vJOv_r5K21qHO3EGTb-9" value="" style="image;aspect=fixed;html=1;points=[];align=center;fontSize=12;image=img/lib/azure2/analytics/Power_BI_Embedded.svg;" vertex="1" parent="1">
          <mxGeometry x="750" y="160" width="30" height="40" as="geometry" />
        </mxCell>
        <mxCell id="D0vJOv_r5K21qHO3EGTb-11" value="&lt;div style=&quot;line-height: 90%;&quot;&gt;&lt;font style=&quot;font-size: 10px;&quot;&gt;BI &amp;amp; Reporting&amp;nbsp;&lt;/font&gt;&lt;/div&gt;" style="text;html=1;align=center;verticalAlign=middle;whiteSpace=wrap;rounded=0;" vertex="1" parent="1">
          <mxGeometry x="700" y="200" width="80" height="30" as="geometry" />
        </mxCell>
      </root>
    </mxGraphModel>
  </diagram>
</mxfile>
